# xmcd
#
# Track frame offsets: 
#        182
#        18027
#        36205
#        52145
#        72817
#        91927
#        119052
#        136610
#        155577
#        171035
#        187410
#        206225
#        222450
#
# Disc length: 3134 seconds
#
# Revision: 7
# Processed by: cddbd v1.5.2PL0 Copyright (c) Steve Scherf et al.
# Submitted via: ExactAudioCopy v1.0b3
#
DISCID=c20c3c0d
DTITLE=Udo Jürgens - Zärtlicher Chaot
DYEAR=1995
DGENRE=Pop-Folk
TTITLE0=Heute beginnt der Rest deines Lebens
TTITLE1=Zärtlicher Chaot
TTITLE2=Mitten durch 's Herz
TTITLE3=Mehr Leben
TTITLE4=Festspielfieber
TTITLE5=Manchmal hass' ich mich
TTITLE6=Solange du mich willst
TTITLE7=Der werfe den ersten Stein
TTITLE8=Humtata und Tätärä
TTITLE9=Der Schuft
TTITLE10=Lieben, Leiden und Leben
TTITLE11=Meine Antwort
TTITLE12=Finale (Reprise) (Mitten durchs Herz, Zärtlicher Chaot, Heute
TTITLE12=beginnt der Rest deines Lebens)
EXTD=
EXTT0=
EXTT1=
EXTT2=
EXTT3=
EXTT4=
EXTT5=
EXTT6=
EXTT7=
EXTT8=
EXTT9=
EXTT10=
EXTT11=
EXTT12=
PLAYORDER=
